<svg width="85" height="42" viewBox="0 0 85 42" fill="none" xmlns="http://www.w3.org/2000/svg">
<path d="M80.3679 41.2725C82.4217 41.2725 84.0867 39.6075 84.0867 37.5537C84.0867 35.4999 82.4217 33.835 80.3679 33.835C78.3141 33.835 76.6492 35.4999 76.6492 37.5537C76.6492 39.6075 78.3141 41.2725 80.3679 41.2725Z" fill="#32FFA8"/>
<path d="M6.99125 41.4846C5.48957 41.4846 4.21458 41.2791 3.16625 40.8683C2.13208 40.4575 1.35292 39.9121 0.82875 39.2321C0.304582 38.5379 0.0283332 37.78 0 36.9583C0 36.8308 0.0425 36.7246 0.1275 36.6396C0.226668 36.5404 0.34 36.4908 0.4675 36.4908H4.505C4.70333 36.4908 4.85917 36.5191 4.9725 36.5758C5.1 36.6183 5.24875 36.7104 5.41875 36.8521C5.82957 37.1779 6.35375 37.3408 6.99125 37.3408C7.47294 37.3408 7.85544 37.2913 8.13875 37.1921C8.43625 37.0788 8.585 36.93 8.585 36.7458C8.585 36.4908 8.39375 36.2996 8.01125 36.1721C7.62875 36.0304 6.90625 35.8888 5.84375 35.7471C2.18875 35.2654 0.36125 33.7071 0.36125 31.0721C0.36125 30.1229 0.630419 29.28 1.16875 28.5433C1.72125 27.7925 2.48625 27.2116 3.46375 26.8008C4.44125 26.39 5.5675 26.1846 6.8425 26.1846C8.17419 26.1846 9.34294 26.4113 10.3488 26.8646C11.3546 27.3179 12.1267 27.8916 12.665 28.5858C13.2033 29.2658 13.4867 29.9316 13.515 30.5833C13.515 30.7108 13.4654 30.8241 13.3663 30.9233C13.2813 31.0083 13.1821 31.0508 13.0688 31.0508H8.81875C8.62044 31.0508 8.46457 31.0296 8.35125 30.9871C8.23794 30.9304 8.11044 30.8383 7.96875 30.7108C7.67125 30.4558 7.29582 30.3283 6.8425 30.3283C6.1625 30.3283 5.8225 30.5266 5.8225 30.9233C5.8225 31.1358 5.98544 31.3129 6.31125 31.4546C6.65125 31.5963 7.27457 31.7238 8.18125 31.8371C9.59794 32.0213 10.7313 32.2975 11.5813 32.6658C12.4454 33.0341 13.0688 33.53 13.4513 34.1533C13.8479 34.7625 14.0463 35.5346 14.0463 36.4696C14.0463 37.4754 13.7417 38.3608 13.1325 39.1258C12.5233 39.8766 11.6804 40.4575 10.6038 40.8683C9.54125 41.2791 8.33707 41.4846 6.99125 41.4846ZM16.1769 41.2721C16.0211 41.2721 15.8865 41.2154 15.7731 41.1021C15.6598 40.9888 15.6031 40.8541 15.6031 40.6983V26.9708C15.6031 26.815 15.6598 26.6804 15.7731 26.5671C15.8865 26.4538 16.0211 26.3971 16.1769 26.3971H22.6156C24.599 26.3971 26.1573 26.8363 27.2906 27.7146C28.4381 28.5929 29.0119 29.8891 29.0119 31.6033C29.0119 33.3033 28.4453 34.5713 27.3119 35.4071C26.1786 36.2288 24.6131 36.6396 22.6156 36.6396H21.1281V40.6983C21.1281 40.8541 21.0715 40.9888 20.9581 41.1021C20.8448 41.2154 20.7103 41.2721 20.5544 41.2721H16.1769ZM22.5094 32.7083C22.7644 32.7083 22.9911 32.6163 23.1894 32.4321C23.3878 32.2338 23.4869 31.9433 23.4869 31.5608C23.4869 31.235 23.409 30.9516 23.2531 30.7108C23.0973 30.47 22.8494 30.3496 22.5094 30.3496H21.0219V32.7083H22.5094ZM28.7227 41.2721C28.5952 41.2721 28.4819 41.2296 28.3827 41.1446C28.2977 41.0454 28.2552 40.9321 28.2552 40.8046C28.2552 40.7479 28.2623 40.6983 28.2765 40.6558L33.0152 27.0983C33.0719 26.9141 33.1781 26.7513 33.334 26.6096C33.4898 26.4679 33.7023 26.3971 33.9715 26.3971H38.5827C38.8519 26.3971 39.0644 26.4679 39.2202 26.6096C39.376 26.7513 39.4823 26.9141 39.539 27.0983L44.2777 40.6558C44.2919 40.6983 44.299 40.7479 44.299 40.8046C44.299 40.9321 44.2494 41.0454 44.1502 41.1446C44.0652 41.2296 43.959 41.2721 43.8315 41.2721H39.9002C39.4752 41.2721 39.199 41.095 39.0715 40.7408L38.5615 39.3383H33.9927L33.4827 40.7408C33.3552 41.095 33.079 41.2721 32.654 41.2721H28.7227ZM37.4777 35.1946L36.2665 31.2421L35.0765 35.1946H37.4777ZM51.8487 41.4846C49.7095 41.4846 48.0095 41.0171 46.7487 40.0821C45.4879 39.1329 44.8149 37.6808 44.7299 35.7258C44.7157 35.3433 44.7087 34.72 44.7087 33.8558C44.7087 32.9775 44.7157 32.34 44.7299 31.9433C44.8149 30.045 45.502 28.6141 46.7912 27.6508C48.0804 26.6733 49.7662 26.1846 51.8487 26.1846C53.1239 26.1846 54.2927 26.3758 55.3552 26.7583C56.4315 27.1408 57.3028 27.7429 57.9689 28.5646C58.6489 29.3721 58.9958 30.3921 59.0102 31.6246C59.0102 31.7521 58.9603 31.8654 58.8614 31.9646C58.7764 32.0496 58.6702 32.0921 58.5427 32.0921H54.2077C53.9809 32.0921 53.8108 32.0496 53.6977 31.9646C53.5983 31.8796 53.5064 31.7166 53.4214 31.4758C53.2653 31.0508 53.0602 30.7533 52.8052 30.5833C52.5499 30.4133 52.2241 30.3283 51.8274 30.3283C51.3316 30.3283 50.9491 30.4629 50.6799 30.7321C50.4107 30.9871 50.2691 31.4263 50.2549 32.0496C50.2407 32.4321 50.2337 33.02 50.2337 33.8133C50.2337 34.6066 50.2407 35.2088 50.2549 35.6196C50.2691 36.2429 50.4107 36.6891 50.6799 36.9583C50.9491 37.2133 51.3316 37.3408 51.8274 37.3408C52.6349 37.3408 53.1664 36.9583 53.4214 36.1933C53.4921 35.9525 53.5771 35.7896 53.6764 35.7046C53.7896 35.6196 53.9665 35.5771 54.2077 35.5771H58.5427C58.6702 35.5771 58.7764 35.6266 58.8614 35.7258C58.9603 35.8108 59.0102 35.9171 59.0102 36.0446C58.9958 37.2771 58.6489 38.3041 57.9689 39.1258C57.3028 39.9333 56.4315 40.5283 55.3552 40.9108C54.2927 41.2933 53.1239 41.4846 51.8487 41.4846ZM61.2707 41.2721C61.115 41.2721 60.9806 41.2154 60.8669 41.1021C60.7538 40.9888 60.6969 40.8541 60.6969 40.6983V26.9708C60.6969 26.815 60.7538 26.6804 60.8669 26.5671C60.9806 26.4538 61.115 26.3971 61.2707 26.3971H72.1719C72.3281 26.3971 72.4625 26.4538 72.5757 26.5671C72.6893 26.6804 72.7457 26.815 72.7457 26.9708V29.9671C72.7457 30.1229 72.6893 30.2575 72.5757 30.3708C72.4625 30.4841 72.3281 30.5408 72.1719 30.5408H65.7969V31.8796H71.7044C71.8606 31.8796 71.995 31.9363 72.1082 32.0496C72.2219 32.1629 72.2782 32.2975 72.2782 32.4533V35.2158C72.2782 35.3716 72.2219 35.5063 72.1082 35.6196C71.995 35.7329 71.8606 35.7896 71.7044 35.7896H65.7969V37.1283H72.3419C72.4981 37.1283 72.6325 37.185 72.7457 37.2983C72.8594 37.4116 72.9157 37.5463 72.9157 37.7021V40.6983C72.9157 40.8541 72.8594 40.9888 72.7457 41.1021C72.6325 41.2154 72.4981 41.2721 72.3419 41.2721H61.2707Z" fill="white"/>
<path d="M1.31649 14.7103C1.16455 14.7103 1.03333 14.6551 0.92283 14.5446C0.81233 14.4341 0.75708 14.3028 0.75708 14.1509V0.766593C0.75708 0.614656 0.81233 0.483437 0.92283 0.372937C1.03333 0.262437 1.16455 0.207187 1.31649 0.207187H5.54311C5.69505 0.207187 5.82627 0.262437 5.93677 0.372937C6.04727 0.483437 6.10252 0.614656 6.10252 0.766593V14.1509C6.10252 14.3028 6.04727 14.4341 5.93677 14.5446C5.82627 14.6551 5.69505 14.7103 5.54311 14.7103H1.31649ZM9.15157 14.7103C8.99963 14.7103 8.86842 14.6551 8.75792 14.5446C8.64742 14.4341 8.59217 14.3028 8.59217 14.1509V0.766593C8.59217 0.614656 8.64742 0.483437 8.75792 0.372937C8.86842 0.262437 8.99963 0.207187 9.15157 0.207187H12.4251C12.8119 0.207187 13.095 0.366031 13.2746 0.683718L16.7761 6.42281V0.766593C16.7761 0.614656 16.8313 0.483437 16.9418 0.372937C17.0523 0.262437 17.1835 0.207187 17.3355 0.207187H21.0856C21.2375 0.207187 21.3687 0.262437 21.4792 0.372937C21.5897 0.483437 21.645 0.614656 21.645 0.766593V14.1509C21.645 14.3028 21.5897 14.4341 21.4792 14.5446C21.3687 14.6551 21.2375 14.7103 21.0856 14.7103H17.812C17.5772 14.7103 17.3976 14.662 17.2733 14.5653C17.149 14.4686 17.0454 14.3581 16.9625 14.2338L13.4611 8.9505V14.1509C13.4611 14.3028 13.4058 14.4341 13.2953 14.5446C13.1848 14.6551 13.0536 14.7103 12.9017 14.7103H9.15157ZM30.7039 14.9175C28.6182 14.9175 26.9607 14.4617 25.7314 13.5501C24.5021 12.6246 23.846 11.2088 23.7631 9.30271C23.7493 8.92978 23.7424 8.32203 23.7424 7.47947C23.7424 6.62309 23.7493 6.00153 23.7631 5.61478C23.846 3.7639 24.5159 2.36884 25.7728 1.42959C27.0298 0.476531 28.6735 0 30.7039 0C31.947 0 33.0866 0.186468 34.1225 0.559406C35.1722 0.932343 36.0217 1.51937 36.6709 2.3205C37.3339 3.10781 37.6723 4.10231 37.6861 5.304C37.6861 5.42831 37.6378 5.53881 37.5411 5.6355C37.4582 5.71837 37.3546 5.75981 37.2303 5.75981H33.0037C32.7827 5.75981 32.6169 5.71837 32.5064 5.6355C32.4097 5.55262 32.32 5.39378 32.2371 5.15897C32.0852 4.74459 31.8849 4.45453 31.6362 4.28878C31.3876 4.12303 31.0699 4.04015 30.6832 4.04015C30.1997 4.04015 29.8268 4.17137 29.5644 4.43381C29.3019 4.68244 29.1638 5.11062 29.15 5.71837C29.1362 6.09131 29.1293 6.66453 29.1293 7.43803C29.1293 8.21153 29.1362 8.79856 29.15 9.19912C29.1638 9.80687 29.3019 10.242 29.5644 10.5044C29.8268 10.753 30.1997 10.8773 30.6832 10.8773C31.4705 10.8773 31.9885 10.5044 32.2371 9.75853C32.3062 9.52372 32.389 9.36487 32.4857 9.282C32.5962 9.19912 32.7689 9.15768 33.0037 9.15768H37.2303C37.3546 9.15768 37.4582 9.20603 37.5411 9.30271C37.6378 9.38559 37.6861 9.48918 37.6861 9.6135C37.6723 10.8152 37.3339 11.8166 36.6709 12.6177C36.0217 13.405 35.1722 13.9852 34.1225 14.3581C33.0866 14.731 31.947 14.9175 30.7039 14.9175ZM46.1477 14.9175C44.0758 14.9175 42.4321 14.4479 41.2166 13.5086C40.0149 12.5556 39.4141 11.1329 39.4141 9.24056V0.766593C39.4141 0.614656 39.4693 0.483437 39.5798 0.372937C39.6903 0.262437 39.8215 0.207187 39.9735 0.207187H44.0343C44.1863 0.207187 44.3175 0.262437 44.428 0.372937C44.5385 0.483437 44.5938 0.614656 44.5938 0.766593V9.15768C44.5938 9.68256 44.7181 10.0831 44.9667 10.3594C45.2291 10.6218 45.6159 10.753 46.1269 10.753C46.638 10.753 47.0178 10.6218 47.2665 10.3594C47.5289 10.0831 47.6601 9.68256 47.6601 9.15768V0.766593C47.6601 0.614656 47.7154 0.483437 47.8259 0.372937C47.9364 0.262437 48.0676 0.207187 48.2195 0.207187H52.2804C52.4323 0.207187 52.5636 0.262437 52.6741 0.372937C52.7845 0.483437 52.8398 0.614656 52.8398 0.766593V9.24056C52.8398 11.1329 52.239 12.5556 51.0373 13.5086C49.8356 14.4479 48.2057 14.9175 46.1477 14.9175ZM55.7632 14.7103C55.6113 14.7103 55.4801 14.6551 55.3696 14.5446C55.2591 14.4341 55.2038 14.3028 55.2038 14.1509V0.766593C55.2038 0.614656 55.2591 0.483437 55.3696 0.372937C55.4801 0.262437 55.6113 0.207187 55.7632 0.207187H62.6419C64.6032 0.207187 66.0466 0.566312 66.9721 1.28456C67.9113 2.00281 68.381 3.094 68.381 4.55812C68.381 5.15206 68.2083 5.68384 67.863 6.15347C67.5177 6.60928 67.1378 6.94078 66.7234 7.14797C67.2759 7.36897 67.7387 7.76262 68.1116 8.32893C68.4984 8.88143 68.6917 9.48918 68.6917 10.1522C68.6917 11.6854 68.1945 12.8318 67.2 13.5915C66.2055 14.3374 64.7552 14.7103 62.849 14.7103H55.7632ZM62.1239 5.65622C62.4001 5.65622 62.6073 5.56644 62.7455 5.38687C62.8974 5.1935 62.9734 4.9725 62.9734 4.72387C62.9734 4.47525 62.8974 4.25425 62.7455 4.06087C62.6073 3.8675 62.4001 3.77081 62.1239 3.77081H60.3835V5.65622H62.1239ZM62.3104 11.1467C62.628 11.1467 62.8629 11.0431 63.0148 10.8359C63.1805 10.6287 63.2634 10.3939 63.2634 10.1315C63.2634 9.86903 63.1736 9.63422 62.9941 9.42703C62.8283 9.21984 62.6004 9.11625 62.3104 9.11625H60.3835V11.1467H62.3104ZM76.8416 14.9175C75.3084 14.9175 74.0446 14.6965 73.0501 14.2545C72.0694 13.8125 71.3512 13.2393 70.8953 12.5348C70.4534 11.8166 70.2324 11.0362 70.2324 10.1936C70.2324 9.53062 70.3981 8.91597 70.7296 8.34965C71.0611 7.78334 71.4962 7.34825 72.0349 7.04437C71.1785 6.42281 70.7503 5.525 70.7503 4.35094C70.7503 3.56362 70.9506 2.84537 71.3512 2.19619C71.7517 1.53319 72.4078 1.00141 73.3194 0.600843C74.2311 0.200281 75.4051 0 76.8416 0C78.9273 0 80.4536 0.414374 81.4205 1.24312C82.3873 2.05806 82.8708 3.08019 82.8708 4.3095C82.8708 5.49737 82.4633 6.409 81.6484 7.04437C82.2147 7.32062 82.6636 7.74881 82.9951 8.32893C83.3266 8.90906 83.4924 9.54443 83.4924 10.2351C83.4924 11.0638 83.2644 11.8373 82.8086 12.5556C82.3528 13.26 81.6277 13.8332 80.6332 14.2752C79.6387 14.7034 78.3748 14.9175 76.8416 14.9175ZM76.8416 5.73909C77.2422 5.73909 77.5599 5.6355 77.7947 5.42831C78.0433 5.20731 78.1676 4.93797 78.1676 4.62028C78.1676 4.30259 78.0433 4.04015 77.7947 3.83297C77.5599 3.61197 77.2422 3.50147 76.8416 3.50147C76.4411 3.50147 76.1234 3.61197 75.8886 3.83297C75.6538 4.04015 75.5364 4.30259 75.5364 4.62028C75.5364 4.93797 75.6538 5.20731 75.8886 5.42831C76.1234 5.6355 76.4411 5.73909 76.8416 5.73909ZM76.8416 11.4367C77.2698 11.4367 77.6151 11.3262 77.8776 11.1052C78.1538 10.8842 78.2919 10.5873 78.2919 10.2143C78.2919 9.8414 78.1538 9.54443 77.8776 9.32343C77.6151 9.10243 77.2698 8.99193 76.8416 8.99193C76.4134 8.99193 76.0612 9.10243 75.785 9.32343C75.5225 9.54443 75.3913 9.8414 75.3913 10.2143C75.3913 10.5873 75.5225 10.8842 75.785 11.1052C76.0612 11.3262 76.4134 11.4367 76.8416 11.4367Z" fill="white"/>
</svg>
